<svg xmlns="http://www.w3.org/2000/svg" xmlns:xlink="http://www.w3.org/1999/xlink" width="500" zoomAndPan="magnify" viewBox="0 0 375 374.999991" height="500" preserveAspectRatio="xMidYMid meet" version="1.0"><defs><clipPath id="07e5c47d6d"><path d="M 58 89 L 318 89 L 318 299.25 L 58 299.25 Z M 58 89 " clip-rule="nonzero"/></clipPath></defs><g clip-path="url(#07e5c47d6d)"><path fill="#ffffff" d="M 314.996094 99.03125 C 303.390625 75.746094 252.816406 103.964844 232.292969 115.675781 C 225.503906 113.1875 218.417969 111.203125 211.089844 109.796875 C 207.738281 109.152344 204.335938 108.628906 200.890625 108.238281 C 200.890625 108.234375 200.890625 108.234375 200.890625 108.234375 C 195.785156 107.652344 190.578125 107.347656 185.289062 107.347656 C 185.285156 107.347656 185.285156 107.347656 185.28125 107.347656 C 185.277344 107.347656 185.277344 107.347656 185.273438 107.347656 C 181.277344 107.347656 177.339844 107.519531 173.46875 107.84375 C 169.859375 108.148438 166.300781 108.589844 162.808594 109.164062 C 155.144531 110.417969 147.78125 112.292969 140.761719 114.707031 C 139.09375 115.277344 137.445312 115.882812 135.816406 116.515625 C 113.886719 101.164062 74.457031 76.53125 61.839844 98.019531 C 51.640625 115.382812 65.417969 154.570312 70.707031 173.609375 C 64.40625 186.027344 60.980469 199.164062 60.980469 212.050781 C 60.980469 269.027344 113.460938 299.25 185.277344 299.25 C 257.089844 299.25 313.398438 267.925781 313.398438 217.476562 C 313.398438 201.941406 308.777344 186.269531 300.503906 171.820312 L 300.503906 171.816406 C 299.921875 170.800781 299.320312 169.789062 298.699219 168.78125 C 305.910156 151.292969 323.359375 115.820312 314.996094 99.03125 Z M 314.996094 99.03125 " fill-opacity="1" fill-rule="nonzero"/></g></svg>