<svg xmlns="http://www.w3.org/2000/svg" xmlns:xlink="http://www.w3.org/1999/xlink" width="500" zoomAndPan="magnify" viewBox="0 0 375 149.999998" height="200" preserveAspectRatio="xMidYMid meet" version="1.0"><defs><g/><clipPath id="034ef8cb06"><path d="M 0.160156 0.238281 L 154.960938 0.238281 L 154.960938 53.761719 L 0.160156 53.761719 Z M 0.160156 0.238281 " clip-rule="nonzero"/></clipPath><clipPath id="b5a52d690d"><rect x="0" width="155" y="0" height="54"/></clipPath><clipPath id="ecea134cd4"><path d="M 53 1 L 66.953125 1 L 66.953125 11.828125 L 53 11.828125 Z M 53 1 " clip-rule="nonzero"/></clipPath><clipPath id="d0e56b3249"><rect x="0" width="155" y="0" height="54"/></clipPath></defs><g transform="matrix(1, 0, 0, 1, 110, 48)"><g clip-path="url(#d0e56b3249)"><g clip-path="url(#034ef8cb06)"><g transform="matrix(1, 0, 0, 1, 0, -0.000000000000007105)"><g clip-path="url(#b5a52d690d)"><g fill="#e6a6a6" fill-opacity="1"><g transform="translate(0.373865, 40.287434)"><g><path d="M 47.9375 -14 L 47.9375 -3.9375 C 47.9375 -2.726562 47.5 -1.679688 46.625 -0.796875 C 45.757812 0.0859375 44.6875 0.53125 43.40625 0.53125 C 42.207031 0.53125 41.15625 0.0859375 40.25 -0.796875 C 39.34375 -1.679688 38.890625 -2.726562 38.890625 -3.9375 L 38.890625 -14.46875 C 38.890625 -15.820312 38.460938 -16.867188 37.609375 -17.609375 C 36.765625 -18.359375 35.71875 -18.734375 34.46875 -18.734375 C 33.300781 -18.734375 32.28125 -18.359375 31.40625 -17.609375 C 30.539062 -16.867188 30.109375 -15.820312 30.109375 -14.46875 L 30.109375 -3.9375 C 30.109375 -2.726562 29.664062 -1.679688 28.78125 -0.796875 C 27.894531 0.0859375 26.832031 0.53125 25.59375 0.53125 C 24.351562 0.53125 23.28125 0.0859375 22.375 -0.796875 C 21.46875 -1.679688 21.015625 -2.726562 21.015625 -3.9375 L 21.015625 -14.46875 C 21.015625 -15.820312 20.578125 -16.867188 19.703125 -17.609375 C 18.835938 -18.359375 17.835938 -18.734375 16.703125 -18.734375 C 15.492188 -18.734375 14.457031 -18.359375 13.59375 -17.609375 C 12.726562 -16.867188 12.296875 -15.820312 12.296875 -14.46875 L 12.296875 -3.9375 C 12.296875 -2.726562 11.84375 -1.679688 10.9375 -0.796875 C 10.03125 0.0859375 8.972656 0.53125 7.765625 0.53125 C 6.523438 0.53125 5.453125 0.0859375 4.546875 -0.796875 C 3.640625 -1.679688 3.1875 -2.726562 3.1875 -3.9375 L 3.1875 -14 C 3.1875 -16.613281 3.816406 -18.90625 5.078125 -20.875 C 6.335938 -22.84375 7.992188 -24.378906 10.046875 -25.484375 C 12.109375 -26.585938 14.328125 -27.140625 16.703125 -27.140625 C 18.296875 -27.140625 19.875 -26.863281 21.4375 -26.3125 C 23 -25.757812 24.382812 -24.96875 25.59375 -23.9375 C 28.039062 -26.070312 31 -27.140625 34.46875 -27.140625 C 36.882812 -27.140625 39.113281 -26.585938 41.15625 -25.484375 C 43.195312 -24.378906 44.835938 -22.84375 46.078125 -20.875 C 47.316406 -18.90625 47.9375 -16.613281 47.9375 -14 Z M 47.9375 -14 "/></g></g></g><g fill="#e6a6a6" fill-opacity="1"><g transform="translate(51.504247, 40.287434)"><g><path d="M 13.09375 -22.671875 L 13.09375 -3.9375 C 13.09375 -2.726562 12.65625 -1.679688 11.78125 -0.796875 C 10.914062 0.0859375 9.863281 0.53125 8.625 0.53125 C 7.414062 0.53125 6.367188 0.0859375 5.484375 -0.796875 C 4.597656 -1.679688 4.15625 -2.726562 4.15625 -3.9375 L 4.15625 -22.671875 C 4.15625 -23.867188 4.597656 -24.910156 5.484375 -25.796875 C 6.367188 -26.691406 7.414062 -27.140625 8.625 -27.140625 C 9.863281 -27.140625 10.914062 -26.691406 11.78125 -25.796875 C 12.65625 -24.910156 13.09375 -23.867188 13.09375 -22.671875 Z M 13.09375 -22.671875 "/></g></g></g><g fill="#e6a6a6" fill-opacity="1"><g transform="translate(68.742794, 40.287434)"><g><path d="M 47.9375 -14 L 47.9375 -3.9375 C 47.9375 -2.726562 47.5 -1.679688 46.625 -0.796875 C 45.757812 0.0859375 44.6875 0.53125 43.40625 0.53125 C 42.207031 0.53125 41.15625 0.0859375 40.25 -0.796875 C 39.34375 -1.679688 38.890625 -2.726562 38.890625 -3.9375 L 38.890625 -14.46875 C 38.890625 -15.820312 38.460938 -16.867188 37.609375 -17.609375 C 36.765625 -18.359375 35.71875 -18.734375 34.46875 -18.734375 C 33.300781 -18.734375 32.28125 -18.359375 31.40625 -17.609375 C 30.539062 -16.867188 30.109375 -15.820312 30.109375 -14.46875 L 30.109375 -3.9375 C 30.109375 -2.726562 29.664062 -1.679688 28.78125 -0.796875 C 27.894531 0.0859375 26.832031 0.53125 25.59375 0.53125 C 24.351562 0.53125 23.28125 0.0859375 22.375 -0.796875 C 21.46875 -1.679688 21.015625 -2.726562 21.015625 -3.9375 L 21.015625 -14.46875 C 21.015625 -15.820312 20.578125 -16.867188 19.703125 -17.609375 C 18.835938 -18.359375 17.835938 -18.734375 16.703125 -18.734375 C 15.492188 -18.734375 14.457031 -18.359375 13.59375 -17.609375 C 12.726562 -16.867188 12.296875 -15.820312 12.296875 -14.46875 L 12.296875 -3.9375 C 12.296875 -2.726562 11.84375 -1.679688 10.9375 -0.796875 C 10.03125 0.0859375 8.972656 0.53125 7.765625 0.53125 C 6.523438 0.53125 5.453125 0.0859375 4.546875 -0.796875 C 3.640625 -1.679688 3.1875 -2.726562 3.1875 -3.9375 L 3.1875 -14 C 3.1875 -16.613281 3.816406 -18.90625 5.078125 -20.875 C 6.335938 -22.84375 7.992188 -24.378906 10.046875 -25.484375 C 12.109375 -26.585938 14.328125 -27.140625 16.703125 -27.140625 C 18.296875 -27.140625 19.875 -26.863281 21.4375 -26.3125 C 23 -25.757812 24.382812 -24.96875 25.59375 -23.9375 C 28.039062 -26.070312 31 -27.140625 34.46875 -27.140625 C 36.882812 -27.140625 39.113281 -26.585938 41.15625 -25.484375 C 43.195312 -24.378906 44.835938 -22.84375 46.078125 -20.875 C 47.316406 -18.90625 47.9375 -16.613281 47.9375 -14 Z M 47.9375 -14 "/></g></g></g><g fill="#e6a6a6" fill-opacity="1"><g transform="translate(119.873176, 40.287434)"><g><path d="M 22.453125 -13.1875 L 22.453125 -22.671875 C 22.453125 -23.867188 22.910156 -24.910156 23.828125 -25.796875 C 24.753906 -26.691406 25.820312 -27.140625 27.03125 -27.140625 C 28.269531 -27.140625 29.332031 -26.691406 30.21875 -25.796875 C 31.101562 -24.910156 31.546875 -23.867188 31.546875 -22.671875 L 31.546875 -13.1875 C 31.546875 -10.632812 30.90625 -8.320312 29.625 -6.25 C 28.351562 -4.175781 26.648438 -2.523438 24.515625 -1.296875 C 22.390625 -0.078125 20.015625 0.53125 17.390625 0.53125 C 14.734375 0.53125 12.332031 -0.078125 10.1875 -1.296875 C 8.039062 -2.523438 6.335938 -4.175781 5.078125 -6.25 C 3.816406 -8.320312 3.1875 -10.632812 3.1875 -13.1875 L 3.1875 -22.671875 C 3.1875 -23.867188 3.640625 -24.910156 4.546875 -25.796875 C 5.453125 -26.691406 6.507812 -27.140625 7.71875 -27.140625 C 8.957031 -27.140625 10.03125 -26.691406 10.9375 -25.796875 C 11.84375 -24.910156 12.296875 -23.867188 12.296875 -22.671875 L 12.296875 -13.1875 C 12.296875 -11.769531 12.769531 -10.53125 13.71875 -9.46875 C 14.675781 -8.40625 15.898438 -7.875 17.390625 -7.875 C 18.847656 -7.875 20.054688 -8.40625 21.015625 -9.46875 C 21.972656 -10.53125 22.453125 -11.769531 22.453125 -13.1875 Z M 22.453125 -13.1875 "/></g></g></g></g></g></g><g clip-path="url(#ecea134cd4)"><path fill="#e6a6a6" d="M 66.714844 1.515625 C 66.109375 0.300781 63.476562 1.773438 62.40625 2.382812 C 62.054688 2.253906 61.683594 2.148438 61.300781 2.074219 C 61.128906 2.042969 60.949219 2.015625 60.769531 1.996094 C 60.503906 1.964844 60.234375 1.949219 59.957031 1.949219 C 59.75 1.949219 59.542969 1.957031 59.34375 1.972656 C 59.15625 1.988281 58.96875 2.011719 58.789062 2.042969 C 58.386719 2.109375 58.003906 2.207031 57.640625 2.332031 C 57.550781 2.359375 57.464844 2.394531 57.382812 2.425781 C 56.238281 1.625 54.1875 0.34375 53.527344 1.460938 C 52.996094 2.367188 53.714844 4.40625 53.992188 5.398438 C 53.664062 6.046875 53.484375 6.730469 53.484375 7.402344 C 53.484375 10.371094 56.21875 11.945312 59.957031 11.945312 C 63.699219 11.945312 66.632812 10.3125 66.632812 7.683594 C 66.632812 6.875 66.390625 6.058594 65.960938 5.304688 C 65.929688 5.253906 65.898438 5.199219 65.867188 5.148438 C 66.242188 4.238281 67.148438 2.390625 66.714844 1.515625 Z M 66.714844 1.515625 " fill-opacity="1" fill-rule="nonzero"/></g></g></g></svg>